<svg xmlns="http://www.w3.org/2000/svg" viewBox="0 0 875.22 469.92"><defs><style>.cls-1{fill:none;}.cls-2{fill:#fff;}.cls-3{fill:#ededed;opacity:0.9;}</style></defs><title>Asset 1</title><g id="Layer_2" data-name="Layer 2"><g id="Layer_2-2" data-name="Layer 2"><path class="cls-1" d="M547.77,209.36a44.07,44.07,0,0,1-5.37,6.14c-1.79,1.87-2.69,4.56-2.69,8.05v8.95h16.11v-8.95q0-5.49-2.94-8.31C550.07,212.52,548.36,210.56,547.77,209.36Z"/><path class="cls-1" d="M738.72,208.21a11.64,11.64,0,0,0-5.24-1.15,11.14,11.14,0,0,0-5.24,1.15,4.5,4.5,0,0,0-2.81,4.22v39.62a5.11,5.11,0,0,0,2.55,4.48,10.2,10.2,0,0,0,5.24,1.27,10.88,10.88,0,0,0,5.37-1.27,5,5,0,0,0,2.94-4.48V212.43A4.68,4.68,0,0,0,738.72,208.21Z"/><path class="cls-1" d="M521.88,148l-2.06-.65c-20.07-6.39-57.5-19.89-82.64-38.49l-1.71-1.27-1.71,1.27c-25.14,18.6-62.57,32.1-82.64,38.49l-2.06.65.06,2.17c1.62,53.68,14.86,148,85.26,176.85l1.09.44,1.09-.44c70.4-28.82,83.64-123.17,85.26-176.85Z"/><path class="cls-1" d="M50.1,206l-10.35-.13V217.8H50.1A7.36,7.36,0,0,0,55,216a5.62,5.62,0,0,0,2.11-4.47Q57.13,206,50.1,206Z"/><path class="cls-1" d="M330.66,206.55c-1.71-.42-5.16-.64-10.36-.64v47.42h3.33q12.78,0,12.78-8V213.73Q336.41,208.23,330.66,206.55Z"/><path class="cls-1" d="M149.67,207.53a9.48,9.48,0,0,0-5.37-1.62H133.82V217.8H144.3a9.86,9.86,0,0,0,5.12-1.29,4.84,4.84,0,0,0,2.68-4.4A5.17,5.17,0,0,0,149.67,207.53Z"/><path class="cls-1" d="M838.16,214.67a5.2,5.2,0,0,0-2.43-4.59,9.54,9.54,0,0,0-5.37-1.61H819.88v11.88h10.48a9.73,9.73,0,0,0,5.11-1.29A4.83,4.83,0,0,0,838.16,214.67Z"/><path class="cls-2" d="M77.46,187.61q-8.82-5.34-21.6-5.34H.64l6.77,5.11V272L0,277H46.52l-6.77-5V241.44H55.86q10.35,0,20.7-6.51,11.63-7.29,11.63-17.13V205.91Q88.19,194,77.46,187.61ZM55,216a7.36,7.36,0,0,1-4.92,1.79H39.75V205.91L50.1,206q7,0,7,5.5A5.62,5.62,0,0,1,55,216Z"/><path class="cls-2" d="M182.26,241.44q0-13-16.1-13,16.11-2.82,16.1-17,0-16.23-7.82-22.88-7.44-6.27-24.51-6.26H94.71l6.78,5.11V272l-7.42,5h39.75V240.17h3.05c4.81,0,7.9.3,9.25.89q3.81,1.66,3.81,7.8V277h39.24l-6.91-5Zm-32.84-24.93a9.86,9.86,0,0,1-5.12,1.29H133.82V205.91H144.3a9.48,9.48,0,0,1,5.37,1.62,5.17,5.17,0,0,1,2.43,4.58A4.84,4.84,0,0,1,149.42,216.51Z"/><path class="cls-2" d="M235.56,253.33q-.26-3.32-.25-6.9a39.46,39.46,0,0,1,.25-5h15l7.54,5V213.32l-7.63,4.48H235.31a69.14,69.14,0,0,0,0-11.89h25l7.6,5V182.27H195.56l7.67,5.88v83.08L195.56,277h70.55l7.54,5V248.73l-7.54,4.6Z"/><path class="cls-2" d="M281.19,182.27l6.78,5.11V272l-7.42,5h55.86q13,0,21.67-5c-13.92-26.47-22.28-57.55-26-89.7Zm55.22,63.11q0,8-12.78,8H320.3V205.91c5.2,0,8.65.22,10.36.64q5.74,1.66,5.75,7.18Z"/><path class="cls-2" d="M588.15,217q0-6.39-9.07-13.42-.65-.51-18.15-11.76-10.74-6.9-13.16-12.14c-1.48,2.74-4.84,5.83-10,9.26-3.58,33.46-12.27,64.64-27.4,90.56h29.35V252.31h16.11v27.22h39.11l-6.78-5ZM555.82,232.5H539.71v-8.95c0-3.49.9-6.18,2.69-8.05a44.07,44.07,0,0,0,5.37-6.14c.59,1.2,2.3,3.16,5.11,5.88q2.94,2.82,2.94,8.31Z"/><polygon class="cls-2" points="608.6 184.82 601.06 180.35 601.06 213.45 608.6 208.47 625.35 208.47 625.35 274.54 617.93 279.53 664.46 279.53 657.68 274.54 657.68 208.47 674.43 208.47 681.84 213.45 681.84 180.35 674.43 184.82 608.6 184.82"/><path class="cls-2" d="M763.26,190.19q-8.82-5.37-21.73-5.37h-16.1q-13.56,0-22,5-10.35,6.13-10.35,18.79v47.29q0,10.1,11.5,17.25a38.48,38.48,0,0,0,20.84,6.39h16.1q12.4,0,21.47-5.49,10.88-6.53,10.87-18.15V208.6Q773.87,196.59,763.26,190.19Zm-21.73,61.86a5,5,0,0,1-2.94,4.48,10.88,10.88,0,0,1-5.37,1.27,10.2,10.2,0,0,1-5.24-1.27,5.11,5.11,0,0,1-2.55-4.48V212.43a4.5,4.5,0,0,1,2.81-4.22,11.14,11.14,0,0,1,5.24-1.15,11.64,11.64,0,0,1,5.24,1.15,4.68,4.68,0,0,1,2.81,4.22Z"/><path class="cls-2" d="M875.22,279.53l-6.9-5V244q0-13-16.1-13,16.1-2.81,16.1-17,0-16.23-7.82-22.88Q853,184.83,836,184.82H780.77l6.77,5.11v84.62l-7.41,5h39.75V242.72h3q7.23,0,9.26.9c2.54,1.11,3.8,3.7,3.8,7.79v28.12Zm-39.75-60.47a9.73,9.73,0,0,1-5.11,1.29H819.88V208.47h10.48a9.54,9.54,0,0,1,5.37,1.61,5.2,5.2,0,0,1,2.43,4.59A4.83,4.83,0,0,1,835.47,219.06Z"/><path class="cls-3" d="M365.11,260l-16.05-54.91c0-8.05,4.31-13.13-2.76-17.29-5.88-3.56-1.29-5.55-9.89-5.55h-4.33c3.72,32.15,12.08,63.23,26,89.7l.19-.11C365.25,267.69,365.11,268.2,365.11,260Z"/><path class="cls-3" d="M534.22,191.21c-10.14,6-8.35,4.61-10.14,6-6,4.69,6.42,38.75-8.08,34.85l-8.62,42.44-7.42,5h10.4c15.13-25.92,23.82-57.1,27.4-90.56C536.65,189.71,535.49,190.45,534.22,191.21Z"/><path class="cls-2" d="M435.47,89.87c-28.77,28.77-100,48.18-100,48.18,0,85.59,23.74,177.39,100,203.77,76.23-26.38,100-118.18,100-203.77C535.44,138.05,464.24,118.64,435.47,89.87Zm1.09,237.19-1.09.44-1.09-.44c-70.4-28.82-83.64-123.17-85.26-176.85l-.06-2.17,2.06-.65c20.07-6.39,57.5-19.89,82.64-38.49l1.71-1.27,1.71,1.27c25.14,18.6,62.57,32.1,82.64,38.49l2.06.65-.06,2.17C520.2,203.89,507,298.24,436.56,327.06Z"/><path class="cls-2" d="M452.55,452.85a17,17,0,0,0-7-13.7V369.31l23-6.73a12.22,12.22,0,1,0,.14-9.56l-16-7.28c.1-8.78,1.51-18.27,3.61-24.46a178.53,178.53,0,0,1-39.3,11.22,100,100,0,0,1,1.07,13.24l-16,7.28a12.21,12.21,0,1,0,.14,9.56l23,6.73v69.84a17.05,17.05,0,1,0,27.19,13.7Zm-17.08,7a7,7,0,1,1,7-7A7,7,0,0,1,435.47,459.83Z"/><path class="cls-2" d="M411.23,107.63h4.47l3.87-3a134.57,134.57,0,0,1,40.14,10.17v-38h0L435.47,0,411.23,76.8Zm24.24-9.95L420.69,79.34l14.78-48.56Z"/><path class="cls-2" d="M435.47,114.77c-24.89,17.82-60.16,30.84-80.53,37.43,1.86,52.33,15,141.34,80.53,169.08C501,293.54,514.14,204.53,516,152.2,495.63,145.61,460.36,132.59,435.47,114.77ZM466,232.93c-3.09,7.82-10.29,19.28-26.85,25.73V216.74a35.17,35.17,0,0,0,11,1.91c8.76,0,9.94-9.28,9.94-9.28H410.84s1.18,9.28,9.94,9.28a35.17,35.17,0,0,0,11-1.91v41.92c-16.56-6.45-23.76-17.91-26.85-25.73V196c0-17.79,18.3-25.81,30.51-25.81S466,178.18,466,196Z"/></g></g></svg>